/* XPM */
static char *_478459e49104e9fb08f16432921bd21xIMxtG3CUR6KnehF[] = {
/* columns rows colors chars-per-pixel */
"64 64 214 2 ",
"   c None",
".  c #161616",
"X  c #1B1B1B",
"o  c #171717",
"O  c #211F1C",
"+  c #24221D",
"@  c #37301D",
"#  c #1F1F20",
"$  c #1F2021",
"%  c #232323",
"&  c #2B2A25",
"*  c #2B2B2B",
"=  c #272727",
"-  c #312F2A",
";  c #34322D",
":  c #3A3525",
">  c #333333",
",  c #3C3C3C",
"<  c #3B3933",
"1  c #483C1A",
"2  c #413E32",
"3  c #56461B",
"4  c #6C571B",
"5  c #494539",
"6  c #514523",
"7  c #6A5823",
"8  c #76632E",
"9  c #3F3F40",
"0  c #434343",
"q  c #4C4C4C",
"w  c #5A5544",
"e  c #535353",
"r  c #5B5B5C",
"t  c #615B48",
"y  c #69624D",
"u  c #7A725A",
"i  c #746B52",
"p  c #636363",
"a  c #6B6A65",
"s  c #6C6C6C",
"d  c #787569",
"f  c #737374",
"g  c #7B7B7B",
"h  c #7B7970",
"j  c #706D61",
"k  c #83681D",
"l  c #9E7C1E",
"z  c #A17F1D",
"x  c #81785C",
"c  c #84784D",
"v  c #A5821F",
"b  c #BE941F",
"n  c #9B853B",
"m  c #AA8A28",
"M  c #B89628",
"N  c #B59630",
"B  c #CFA11E",
"V  c #DAAA1F",
"C  c #DDB01B",
"Z  c #E1AF0A",
"A  c #E4B202",
"S  c #E9B600",
"D  c #ECB900",
"F  c #E1B00C",
"G  c #E1B214",
"H  c #E3B41D",
"J  c #EBB61F",
"K  c #E0AE1F",
"L  c #C59F2C",
"P  c #CAA52B",
"I  c #D5AC24",
"U  c #D3AC2B",
"Y  c #D9AE24",
"T  c #DAB12B",
"R  c #C8A534",
"E  c #D4AE32",
"W  c #D3AF3C",
"Q  c #D9B338",
"!  c #E2B524",
"~  c #E2B62A",
"^  c #E3B82D",
"/  c #EDB720",
"(  c #E4B933",
")  c #E5BC3B",
"_  c #ECBD38",
"`  c #978953",
"'  c #988748",
"]  c #AA9549",
"[  c #B59C47",
"{  c #B59D54",
"}  c #BAA558",
"|  c #BFA64A",
" . c #958A68",
".. c #9D916C",
"X. c #838174",
"o. c #918B78",
"O. c #8F8463",
"+. c #A99A68",
"@. c #A49771",
"#. c #B6A669",
"$. c #ACA179",
"%. c #B3A67B",
"&. c #B6A878",
"*. c #C5A946",
"=. c #D4B449",
"-. c #DBB746",
";. c #CBB25B",
":. c #D8BA55",
">. c #C4AC56",
",. c #E5BE43",
"<. c #E2BD49",
"1. c #E1BE52",
"2. c #C4B475",
"3. c #D6BF72",
"4. c #C4B069",
"5. c #DEC05F",
"6. c #E6C14C",
"7. c #E8C24C",
"8. c #E7C046",
"9. c #E5C255",
"0. c #E9C453",
"q. c #E5C45B",
"w. c #E9C659",
"e. c #ECC85D",
"r. c #DEC46C",
"t. c #ECCB64",
"y. c #ECCD6C",
"u. c #E5C666",
"i. c #ECCE71",
"p. c #E5CA74",
"a. c #EED176",
"s. c #EED27B",
"d. c #F0D47D",
"f. c #7F7F80",
"g. c #838383",
"h. c #8B8B8B",
"j. c #8A8A86",
"k. c #93928D",
"l. c #949494",
"z. c #9C9C9C",
"x. c #989797",
"c. c #A8A38D",
"v. c #BDAE81",
"b. c #BDB184",
"n. c #A3A19B",
"m. c #AAA696",
"M. c #B1AC97",
"N. c #BAB396",
"B. c #9FA0A0",
"V. c #A4A4A4",
"C. c #ABABAB",
"Z. c #AAAAA5",
"A. c #B0AFA9",
"S. c #BAB6A5",
"D. c #B3B3B3",
"F. c #BBBBBB",
"G. c #B9B8B5",
"H. c #C8B886",
"J. c #C3BA97",
"K. c #D0BF8C",
"L. c #C0BEB5",
"P. c #C5BFAA",
"I. c #D7C588",
"U. c #D7C592",
"Y. c #CFC08A",
"T. c #E7CD83",
"R. c #EDD383",
"E. c #EED58A",
"W. c #F1D684",
"Q. c #F3D98B",
"!. c #F2D789",
"~. c #E1CF97",
"^. c #E5D39B",
"/. c #EBD79A",
"(. c #F3DC94",
"). c #F4DD9A",
"_. c #F9DF93",
"`. c #F6E09E",
"'. c #C7C5B9",
"]. c #D3CEBA",
"[. c #D8CFAC",
"{. c #F2DEA2",
"}. c #E5D8A8",
"|. c #F6E1A4",
" X c #FAE5A6",
".X c #F6E3AC",
"XX c #F9E6AC",
"oX c #FFEAAB",
"OX c #EBE0BA",
"+X c #F6E6B4",
"@X c #F8E7B2",
"#X c #F9E8B6",
"$X c #F5E6BA",
"%X c #F9E9B9",
"&X c #F7E8BA",
"*X c #EFE1AF",
"=X c #C4C4C4",
"-X c #CBCBCC",
";X c #CBC9C2",
":X c #D9D6CB",
">X c #D3D3D3",
",X c #DADADA",
"<X c #DAD8D1",
"1X c #CECFD0",
"2X c #E1DFD7",
"3X c #F1E8C8",
"4X c #F4EFDA",
"5X c #F5F0DE",
"6X c #EFE8D0",
"7X c #E5E5E5",
"8X c #EAEBEC",
"9X c #E9E8E8",
"0X c #F4F4F5",
"qX c #EEEFF0",
/* pixels */
"                                                                                                                                ",
"                                                                                                                                ",
"                                                                                                                                ",
"                                                    A A F G H H H H G A A D                                                     ",
"                                            A Z ~ 7.y.Q.{..X@X@X@X.X|.Q.s.w.( G A                                               ",
"                                        A ~ t.(.+X@X`.Q.s.i.u.y.y.i.s.E.)..X+X|.a.) F S                                         ",
"                                    Z ) E.+X.XR.q.-.5.I.^.}.OX3X3XOX+X^.p.q.:.p.).+X).0.G S                                     ",
"                                A ^ W.&X/.q.-.3.[.:X2X7X7X8XqXqX0X0X0XqX8X2X].I.;.:.T.$X).6.Z                                   ",
"                              G t.%X).1.=.Y.].>X>X1X=XD.C.C.C.V.C.D.D.G.F.-X>X1X;XU.#.=.s.$XR.! S                               ",
"                          S ~ (.+Xt.W H.'.-X=XC.x.h.l.l.l.l.l.l.x.x.x.x.l.l.h.z.D.F.F.N.>.=./.+X6.A                             ",
"                        A ,.@X(.Q ;.P.=XF.z.g.g.j.f p e , > * > - > , 0 r s g f.g g.V.D.A.&.R p.$Xt.Z                           ",
"                      A 7.%Xa.U 2.F.F.z.g g f r > % X # X # % % $ $ # $ X # * 0 p f s g z.C.m.*.9.%Xs.F                         ",
"                    A 7.%Xt.T J.F.C.g f f q * X # % % = * * * * * > * * * % $ X X > r s p f.B.n.} ) @Xs.G                       ",
"                  S 8.#Xt.T N.F.z.s f r * X X % * * > * - > > > > * * > > * * % $ o X , p r s x.z.{ ,.#Xi.A                     ",
"                D ^ @Xa.I N.G.l.p s 0 X o % * * > * * * = = = = % = = * * > > > * = X X % e r p k.x.[ <.%Xw.A                   ",
"                G `.(.Y b.D.k.p s > X X = * > * * = % % X X X X o X X X $ % = * > * * % X X q r r h.k.[ e.#X) D                 ",
"              A y.XX~ 4.D.x.p p - o $ * * > * = % X o . X X X X X X X X o o X % * * > * % X X 0 e r h.o.N Q.|.G                 ",
"              ) %X7.*.A.z.p p > o $ * * * * $ X X X X % % % = & * w y % # X X . X % * * * % X X 0 e p h. .E XXy.A               ",
"            F (.Q.Y M.V.s p , o X * - * = X X o X % = * * * > 0 ..^.v.> * % % X X X X * > * = X X q q s g.] w.#X~               ",
"          D ,.%X( #.C.j.r e X X = * * = X o X % * * * * = < u U.XXoX%.> * * * = X X X % = * * % X % q e f.x P `.d.A             ",
"          F (.W.I M.z.r r % X % * * % X X X % * * * = = w v.|.XXoXoX@.% % * * * * % X X X = * = # . < q r g ' 7.#X~             ",
"          ) #X) #.V.g r 0 . % * * = X X X % * * = % 5 ../.oXoX@X/.@.5 X . > r > * = # . X $ * * = X # 0 q s h P |.y.S           ",
"        A a.(.Y c.z.r r # X = = = % o X % * * % ; x U.oXoXoX{.H.y * X X . , x.j.e > = X X X % = * # . > 0 r f ' t.|.G           ",
"        G  Xe.*.n.g.r 9 . % * * % X X % * = > y H. XoXoXXXU.x < * = * = % , z.C.z.g 0 = X X % = * = X # 0 q s u E #X)           ",
"        ) #X^ #.B.p r = X % = = X X X = = w %.{.oXoXXX^...5 = % % = = = = 0 x.V.C.F.g = % X X % = = $ o < 0 p s M `.y.S         ",
"      S t.`.Y c.l.r e X X = * % X X % = < H.oXoXoX{.v.w % X X o X X X % = > r V.=X>Xh.= = X X X = * = o % 9 e s n y.).F         ",
"      A Q.d.P n.g.r , . % = = $ X X = = ; Y.oX XY.i * X o X o O X X o X % q z.-X,X,Xj.= = % X X = = = X # 9 q s c <.oXH         ",
"      G |.w.*.n.f r * o % = = X X % = % : K.`.e.R 7 + . X X % % % $ X > g =X,X,X,X>Xs % = % X X % = = # X > 0 p u U +X)         ",
"      ! XX,.#.z.s e % X % = % X o % = % & { _ J J K z 1 + & = % % > p D.>X,X,X>XD.p = % = % X . # = = # o > 2 r j P XX7.        ",
"      ^ XX( +.z.p e # X = = $ X X % % % X 1 v K / J / V 8 & % * r B.>X,X,X,X=Xg.9 X X X = = # X X % = % o * 9 r a M `.t.D       ",
"      ) @X~ $.x.r e X X % = # o X % % $ X X & 7 b H K v 3 = 0 h.=X,X,X,X-Xl.0 % % % X X % = # X X % % % X = 0 e a m _.y.S       ",
"      ,.XX! $.x.r q o # % = # o X % = % X X % % : 4 3 & > f F.,X,X,X>XZ.r $ o % % # X X % = $ X X % % % X % , q a N Q.i.A       ",
"      8.oXT $.x.r q X X + % X o X % % # . . # % X . % r C.>X,X,X,XG.f ; + 3 1 O # X . o # % # o . O % # . # , e p m Q.a.A       ",
"      ,.@XT $.x.r q o o $ $ X o . X % X . . # X X 9 l.-X,X,X,X=Xh.9 % 1 z V B k @ . . o # # X . o # # O . % , e a N Q.a.S       ",
"      ( @X^ $.x.r q X o # # X o . X # X . . # , g =X,X,X,X>Xz.e % X : m J / J J L 4 O X # # X . o # # X . % , e a M (.t.S       ",
"      ! XX) } z.p e $ . # # X o . # # # X % p D.,X,X,X>XD.p * # # # X @ 8 B J J / Q 8 X # # X . X # % X . * , r a L  X0.        ",
"      H |.7.| B.s e & . X # O o . X X O = h.>X,X,X,XF.f > . X X X X o . . 1 l T e._. .X # O o . X X # X . > , p j U XX,.        ",
"      A `.y.P n.f.q < . X # # o . X X # * D.,X,X-Xk.0 X . . . . o . . . . @ i T.oXoX .O # X . . X % X . . , 9 a c ) @X!         ",
"      S a.`.V c.l.e q . o # # X . . X % * D.,X=Xk., # # X . . o o o . O 5 %.).XXoXoX .% # X o o X % X . # , q s n t.|.G         ",
"        8.XXT $.z.r e $ . # # X . . X X > V.F.V.B.f % # # O X X X X 2 ../.XXoXoX{.@.5 X X . o X # O X . * , r f N !.d.A         ",
"        ! @X6.*.B.g e , . o # # X . . X % r x.V.V.g.% X X # X X - u U.XXoXoX|.H.y = O X o . o X X X . X 9 2 s u P XX7.D         ",
"        A Q.W.I m.x.e q X . X # X o . . X # , f z.j.% . X X % t v.{.oXoXoXU.x - o X X X . o X X X X . = 9 e f ' 0.XX!           ",
"        D 7.@X~ #.V.s e > . o X X X X . . X X % q r X . . 5 @./.oXoXoX/...2 X X O X X . o o # X X X . 9 9 s f M (.W.A           ",
"          G .Xt.E m.x.e e $ o X X X X . . . X X X % X . - H. XoXoX{.&.w + X X X X o . . o X X X . . * 9 e g ` ) #X)             ",
"          S t..X! &.Z.f e 0 . . X X X . . . . o X X O X 2 ^.oX XK.i & X X X X X X . . . X X X X . X 0 0 f X.M Q.(.F             ",
"            G XXy.T M.V.r r > . X X X X X . . . . X X X < U.^. .< X X X X X X o . . . X X X X . o 9 0 p g.` ) %X,.              ",
"            S w.#X^ >.C.l.e r % . . X X X . . . . . . . ; O.5 # X X X X . . . . . o X X X X . . , 0 e j.o.I ).!.A               ",
"              F (.(.C v.C.j.q r % . . X X X X X . . . . X X . . . . . . . . . . o X X X X . . > q q g.j.N t.@X^                 ",
"                ^ @Xy.Y N.D.X.e r % . . o X X X . o . . . . . . . . . . . . . . X X X o . . > e q f.l.] ) %X0.A                 ",
"                A 0.%X7.U S.D.f.e p > . . . X o X o o X X . . . o . o . . . # # o o . . X 0 e q j.x.+.T XXd.F                   ",
"                  A y.%X) W S.F.h.e p 0 X . . . o X X o X . X o # . # . # . . . o . . * r e r l.z.#.Y `.(.H                     ",
"                    Z s.@X) Q S.G.z.p p p , X . . o o o X . . X o . o . . . . # . = q p e s B.V.#.T (.|.!                       ",
"                      G d.#X8.U N.G.C.g p s p 0 % X X . o X . o o o o o # # # * e s p p l.C.Z.>.T ).|.! D                       ",
"                        F i.&Xt.I 2.G.G.V.g s f f p q > * = % % % % = > 9 r s f f s l.D.G.N.*.<.@X(.! D                         ",
"                          A w.+XE.Q *.J.L.=XD.x.X.f.g.h.g.g.f.f.f.g.h.h.h.f.x h.Z.L.=XG.2.W i.%Xs.G                             ",
"                            A ( ).@Xu.W ;.J.;X-X-XF.C.V.x.x.x.x.x.x.x.z.C.F.1X>X1X'.H.=.:.{..X0.F                               ",
"                                G e..X.Xu.Q :.Y.].:X,X7X7X7X7X7X7X8X8X8X8X7X:X[.r.=.q.(.$Xs.! A                                 ",
"                                  S Y y..X.Xs.:.-.5.I.}.3X6X4X5X5X5X3XOX^.p.:.<.p.{.$XE.) Z                                     ",
"                                      A ! w.).+XXXQ.i.q.9.9.w.w.u.q.9.q.y.E.|.&X|.i.( A                                         ",
"                                          S Z ^ w.R.{.@X&X+X+X@X+X+X$X@X|.Q.t.) G A                                             ",
"                                                D A F ! ( ,.7.7.7.8.) ! G F S                                                   ",
"                                                                                                                                ",
"                                                                                                                                ",
"                                                                                                                                "
};
