/* XPM */
static char *_541b690012f45bab280d25f3afda73bqydOSSi6RbAsGh6P[] = {
/* columns rows colors chars-per-pixel */
"32 32 169 2 ",
"   c None",
".  c #171717",
"X  c #171718",
"o  c #171818",
"O  c #1B1B1B",
"+  c #2C281E",
"@  c #1F1F20",
"#  c #232323",
"$  c #272728",
"%  c #2B2B2B",
"&  c #2E2B24",
"*  c #393422",
"=  c #34322B",
"-  c #38362F",
";  c #333333",
":  c #3D3A31",
">  c #3A3A3A",
",  c #493D1C",
"<  c #413922",
"1  c #715B1D",
"2  c #7F651D",
"3  c #554B2E",
"4  c #46423A",
"5  c #4E4A3C",
"6  c #4C473B",
"7  c #514C3C",
"8  c #434344",
"9  c #4B4B4C",
"0  c #464749",
"q  c #534E40",
"w  c #595342",
"e  c #575346",
"r  c #545455",
"t  c #575859",
"y  c #5B5B5B",
"u  c #565658",
"i  c #635D4A",
"p  c #6D654F",
"a  c #64625B",
"s  c #7B735A",
"d  c #626263",
"f  c #6B6C6C",
"g  c #6D6E70",
"h  c #757576",
"j  c #787771",
"k  c #777779",
"l  c #7A7A7A",
"z  c #7F7D75",
"x  c #8E711D",
"c  c #856B20",
"v  c #857C5E",
"b  c #857E67",
"n  c #A3801D",
"m  c #BE941D",
"M  c #B28E29",
"N  c #E3AF1E",
"B  c #EFBF14",
"V  c #E5B11E",
"C  c #CEA32C",
"Z  c #EDBF20",
"A  c #EEC11F",
"S  c #EDC125",
"D  c #EDC22C",
"F  c #EDC434",
"G  c #EDC53B",
"H  c #8F8153",
"J  c #9A8A55",
"K  c #908253",
"L  c #AE9A5A",
"P  c #A99250",
"I  c #B09B5A",
"U  c #BDA04D",
"Y  c #B4A05E",
"T  c #8D8466",
"R  c #9A8D6B",
"E  c #9D916E",
"W  c #83827E",
"Q  c #9E977C",
"!  c #A59C79",
"~  c #BBA86B",
"^  c #B5A366",
"/  c #B3A574",
"(  c #B7A97F",
")  c #B7A87A",
"_  c #C2AD68",
"`  c #C6B067",
"'  c #CBB265",
"]  c #C9B46C",
"[  c #DABE63",
"{  c #CAB673",
"}  c #C4B47F",
"|  c #CFBD7F",
" . c #C5B271",
".. c #D5BE74",
"X. c #EEC643",
"o. c #EEC84D",
"O. c #EDC952",
"+. c #EECC5C",
"@. c #F0CD58",
"#. c #DEC166",
"$. c #DEC67C",
"%. c #DFC87D",
"&. c #EECD64",
"*. c #E0C46C",
"=. c #E7CA6D",
"-. c #EBCD6D",
";. c #F0CF69",
":. c #EFD06B",
">. c #F1D16D",
",. c #E5C973",
"<. c #ECCF74",
"1. c #EACE7A",
"2. c #E0C97F",
"3. c #EFD173",
"4. c #EDD27B",
"5. c #F1D272",
"6. c #F0D379",
"7. c #848485",
"8. c #878888",
"9. c #8D8D8D",
"0. c #888887",
"q. c #908F88",
"w. c #91908F",
"e. c #98958A",
"r. c #8F8F90",
"t. c #8F9090",
"y. c #939394",
"u. c #979799",
"i. c #9C9C9D",
"p. c #A8A28F",
"a. c #BCAC80",
"s. c #BDB184",
"d. c #A5A39A",
"f. c #9E9FA0",
"g. c #A3A3A4",
"h. c #A6A7A8",
"j. c #ABABAC",
"k. c #A7A8AA",
"l. c #B8B5AA",
"z. c #B5B5B4",
"x. c #BEBEBE",
"c. c #C5B788",
"v. c #C6BB96",
"b. c #C1BEB4",
"n. c #CFC39A",
"m. c #D6C591",
"M. c #DCC995",
"N. c #DCCD98",
"B. c #E5CE84",
"V. c #EED382",
"C. c #EFD688",
"Z. c #F0D789",
"A. c #F0D88B",
"S. c #F4D987",
"D. c #E1CE94",
"F. c #E1D097",
"G. c #FCE08C",
"H. c #DED5B5",
"J. c #EFDBA0",
"K. c #E3D6AE",
"L. c #E2D8B4",
"P. c #F6E2A6",
"I. c #FAE5A7",
"U. c #C4C4C5",
"Y. c #D3D3D3",
"T. c #E3DCC5",
"R. c #E9E2C9",
"E. c #E6E2D2",
"W. c #EDE7D0",
/* pixels */
"                                                                ",
"                            S D D A                             ",
"                    S O.3.4.C.C.Z.S.4.&.X.B                     ",
"                S &.V.B.F.K.T.R.W.R.K.F.B.4.O.                  ",
"              o.4.$.n.b.z.h.i.i.g.h.j.z.l.c.$.<.D               ",
"            +.1.| l.y.h r 8 ; ; ; ; 8 u h y.p.{ 4.X.            ",
"          +.<.c.i.f 8 % # % % % % % $ # % 8 f q. .1.G           ",
"        o.<.} t.t % # % % # # # # # $ = % # = u W ~ 4.D         ",
"      D 6.] w.r # $ % # O @ # @ - = O @ $ % # % r z ` 5.        ",
"      ;.*.e.d $ $ % + @ # $ ; s m.s $ # O # % # % u T ,.X.      ",
"    D 3./ l ; # % @ O $ % e a.I.M.5 $ > $ O # % @ > d Y 5.      ",
"    +.*.e.r # % # O $ 4 E J.J.E 4 # ; 9.f = O # # # 9 v <.F     ",
"    5.` l > # # O # i N.P.( q @ @ # ; r.x.t @ @ $ # > a ' @.    ",
"  A 5./ f % # # O # b G.P & X + O $ f U.Y.r # O # # % r I >.    ",
"  F -.! d # # # @ # 3 C V x < & y j.Y.z.a # $ O # # # 9 J 5.    ",
"  G -.Q u # # O @ # O < x c w u.Y.U.k ; @ O $ O @ # # 0 K 3.    ",
"  G -.Q r O # o O @ o O & l U.Y.y.w 2 1 & . # O O # O 0 K -.    ",
"  F <.! t # @ O O @ # d z.Y.j.u # , m V M * O o O O # 0 J 5.    ",
"  S 5./ d $ @ O o O d Y.x.f # X X . * U S.i O o O O $ r L >.    ",
"    5.` l ; o @ X O f U.l # O X o 6 ) P.M.6 O X @ o ; a ' @.    ",
"    &.#.q.9 O O O X ; h 0.$ O : R J.J.R < @ X O O @ 8 v ,.G     ",
"    F 3.) g = o O X X # > O 7 D.I.( 7 O O O o O X = t I 5.      ",
"      >.[ e.r + O O o X o o T m.p # X O X X O O # 9 b *.o.      ",
"      F <. .7.0 O O O o X X : = X X X X X O O @ 0 h ` 6.        ",
"        +.-.s.7.9 + . X X o . . X X o O o X # 9 l ^ 4.F         ",
"          :.=.c.9.y ; O X X o o o o X o # > d 0.~ 4.o.          ",
"          B -.=.} d.W d 8 ; $ # # % ; 9 f 7.d.{ 4.o.            ",
"              +.<...l.l.g.u.9.9.9.y.d.j.l.v.$.4.X.              ",
"                G <.1.%.N.H.T.E.E.R.L.F.B.4.&.Z                 ",
"                    G &.4.V.C.Z.A.Z.V.3.+.S                     ",
"                          S G X.X.F A                           ",
"                                                                "
};
