/* XPM */
static char *_0ff84e9d41c4c3eeb357ed897bf56a8nB3xMZkIYTRZxjBs[] = {
/* columns rows colors chars-per-pixel */
"16 16 160 2 ",
"   c None",
".  c #141515",
"X  c #161616",
"o  c #171616",
"O  c #181819",
"+  c #191919",
"@  c #19191A",
"#  c #1B1B1B",
"$  c #1B1B1C",
"%  c #1B1C1C",
"&  c gray11",
"*  c #1C1D1D",
"=  c #1D1D1D",
"-  c #1F1F1D",
";  c #1E1E1F",
":  c gray12",
">  c #1F1F20",
",  c gray13",
"<  c #222222",
"1  c #222223",
"2  c #232323",
"3  c #242423",
"4  c #232324",
"5  c #252524",
"6  c #252525",
"7  c #262625",
"8  c #242426",
"9  c #252527",
"0  c #262727",
"q  c #272728",
"w  c #282828",
"e  c gray16",
"r  c #29292A",
"t  c #2A2A2B",
"y  c #2C2C2E",
"u  c gray18",
"i  c #302E28",
"p  c #3B372B",
"a  c #2E2E30",
"s  c #363637",
"d  c #393731",
"f  c #3E3B30",
"g  c #3A3935",
"h  c #363738",
"j  c #3B3B3A",
"k  c #3D3B38",
"l  c #3C3C3C",
"z  c #3E3E3D",
"x  c #3E3E3E",
"c  c #3F3F3F",
"v  c #544825",
"b  c #454135",
"n  c #41403F",
"m  c #4B483F",
"M  c #4F4B3E",
"N  c #645529",
"B  c #444342",
"V  c gray27",
"C  c #4F4D44",
"Z  c #514F49",
"A  c #52514C",
"S  c #555451",
"D  c #585651",
"F  c #5A5850",
"G  c #595855",
"H  c #5A5954",
"J  c #5F5E59",
"K  c #635D4A",
"L  c #645C48",
"P  c #655D49",
"I  c #665F4C",
"U  c #655F50",
"Y  c #636054",
"T  c #64625C",
"R  c #787055",
"E  c #7D7459",
"W  c #7E7559",
"Q  c #606060",
"!  c #626262",
"~  c #676662",
"^  c #6E6D6A",
"/  c #6F6F6E",
"(  c #74736F",
")  c #727271",
"_  c #7A7B7B",
"`  c #7D7C78",
"'  c #7F7E7A",
"]  c gray49",
"[  c #8A7025",
"{  c #8B7127",
"}  c #8D7F56",
"|  c #837A60",
" . c #807A65",
".. c #F2CA3D",
"X. c #F3CA3E",
"o. c #9B8C5F",
"O. c #B7A15A",
"+. c #B7A15B",
"@. c #86806A",
"#. c #918C7D",
"$. c #AA9862",
"%. c #AF9B60",
"&. c #AB9E76",
"*. c #BDA864",
"=. c #B0A06D",
"-. c #B5A56F",
";. c #BDAA6D",
":. c #BEAB6D",
">. c #AFA279",
",. c #B3A678",
"<. c #BAAB7C",
"1. c #C8AE5B",
"2. c #C9AF5B",
"3. c #C0AB65",
"4. c #CDB66A",
"5. c #CEB76B",
"6. c #C1AF72",
"7. c #C5B273",
"8. c #C8B577",
"9. c #C7B57A",
"0. c #C4B37D",
"q. c #EEC847",
"w. c #EBC74C",
"e. c #EAC74E",
"r. c #EBC74E",
"t. c #F1C940",
"y. c #F1C941",
"u. c #F0C942",
"i. c #F1CA43",
"p. c #E2C153",
"a. c #E3C252",
"s. c #EBC852",
"d. c #EBC955",
"f. c #E3C45E",
"g. c #E4C55E",
"h. c #EAC958",
"j. c #EBC958",
"k. c #E9C85A",
"l. c #E7C966",
"z. c #E5C96E",
"x. c #E8CB6C",
"c. c #E9CC6C",
"v. c gray51",
"b. c #838383",
"n. c #898780",
"m. c #888681",
"M. c #8F8F8E",
"N. c #989280",
"B. c #9E9782",
"V. c #919190",
"C. c #A09B89",
"Z. c #CDBC82",
"A. c #E3CE8B",
"S. c #E4CF89",
"D. c #E0CC8C",
"F. c #E2CE8C",
"G. c #E1D19F",
"H. c #E4D39E",
"J. c #E2D3A0",
"K. c #E7D6A0",
/* pixels */
"                                ",
"        i.c.F.K.K.S.l.          ",
"      j.Z.B.` / ) ' B.8.w.      ",
"    d.<.~ s w < 9 r s T -.w.    ",
"  t.7.J r < 4 C K 9 < r F 3.    ",
"  g.@.a < d | >.I V x < y W a.  ",
"  5.D < 3 o.$.f y b.] 4 4 C 2.  ",
"  :.B : < N [ U V.n.l > > k +.  ",
"  ;.B $ % h #.M.U [ v : + g O.  ",
"  4.A $ > v._ 9 p %.} % % m 1.  ",
"  f. .q + c x L &.W i O 9 R a.  ",
"  i.:.S : X : P b + X : Z *.    ",
"    j.,.H q + X X + t H &.r.    ",
"      j.0.#.^ Q ! ) N.9.r.      ",
"        q.z.D.J.H.F.c.t.        ",
"              ....              "
};
